<svg xmlns="http://www.w3.org/2000/svg" viewBox="0 0 22.65 22.65"><defs><style>.cls-1{fill:#fff;stroke:#fff;stroke-miterlimit:10;stroke-width:0.3px;}</style></defs><g id="Layer_2" data-name="Layer 2"><g id="Layer_1-2" data-name="Layer 1"><path class="cls-1" d="M21.69,9.52l-2.11-.16a8.11,8.11,0,0,0-1-2.47l1.37-1.62a.87.87,0,0,0-.05-1.19L18.57,2.77a.87.87,0,0,0-1.19,0L15.77,4.09a8.49,8.49,0,0,0-2.47-1L13.13,1a.88.88,0,0,0-.87-.81H10.4A.88.88,0,0,0,9.52,1L9.36,3.07a8.11,8.11,0,0,0-2.47,1L5.27,2.72a.87.87,0,0,0-1.19,0L2.77,4.08a.87.87,0,0,0,0,1.19L4.09,6.88a8.49,8.49,0,0,0-1,2.47L1,9.52a.88.88,0,0,0-.81.87v1.86a.88.88,0,0,0,.81.88l2.11.16a8.11,8.11,0,0,0,1,2.47L2.72,17.38a.87.87,0,0,0,0,1.19l1.31,1.31a.87.87,0,0,0,1.19.05l1.61-1.37a8.49,8.49,0,0,0,2.47,1l.17,2.11a.88.88,0,0,0,.87.81h1.86a.88.88,0,0,0,.88-.81l.16-2.11a8.11,8.11,0,0,0,2.47-1l1.62,1.37a.87.87,0,0,0,1.19-.05l1.31-1.31a.87.87,0,0,0,.05-1.19l-1.37-1.61a8.49,8.49,0,0,0,1-2.47l2.11-.17a.88.88,0,0,0,.81-.87V10.4A.88.88,0,0,0,21.69,9.52Zm-.07,2.75-2.75.23-.06.32a7.67,7.67,0,0,1-1.15,2.75l-.18.27L19.28,18l-1.34,1.32-2.11-1.79-.27.18a7.65,7.65,0,0,1-2.75,1.14l-.32.06-.24,2.77-1.87,0-.23-2.75-.32-.06a7.67,7.67,0,0,1-2.75-1.15l-.27-.18-2.12,1.8L3.37,17.94l1.79-2.11L5,15.56a7.65,7.65,0,0,1-1.14-2.75l-.06-.32L1,12.25l0-1.87,2.75-.23.06-.32A7.67,7.67,0,0,1,5,7.08l.18-.27L3.37,4.69,4.71,3.37,6.82,5.16,7.09,5A7.65,7.65,0,0,1,9.84,3.84l.32-.06L10.4,1l1.87,0,.23,2.75.32.06A7.67,7.67,0,0,1,15.57,5l.27.18L18,3.37l1.32,1.34L17.49,6.82l.18.27a7.65,7.65,0,0,1,1.14,2.75l.06.32,2.75.22,0-.43Z"/><path class="cls-1" d="M11.33,6.17a5.16,5.16,0,1,0,5.15,5.16A5.16,5.16,0,0,0,11.33,6.17Zm0,9.45a4.3,4.3,0,1,1,4.29-4.29h0A4.31,4.31,0,0,1,11.33,15.62Z"/></g></g></svg>