<svg width="40" height="40" viewBox="0 0 40 40" fill="none" xmlns="http://www.w3.org/2000/svg">
<rect width="40" height="40" rx="4" fill="black"/>
<path d="M9.65644 19.4532C9.65644 19.4532 10.1367 19.374 10.3345 19.5808C10.5326 19.7875 10.4028 20.2151 10.14 20.2223C9.87718 20.2293 9.63433 20.2778 9.46185 20.0947C9.28937 19.9115 9.33565 19.5436 9.65644 19.4532ZM14.8695 22.3718C14.8232 22.3766 14.7742 22.3554 14.7241 22.3196C14.3799 21.8398 14.2555 20.199 14.0974 20.1013C13.9335 20 13.34 21.0104 12.1595 20.9017C11.6659 20.8562 11.1635 20.5364 10.8678 20.315C10.8953 19.9421 10.9 19.0716 11.6353 19.3547C12.082 19.5266 12.8468 19.9988 13.5185 19.1509C14.2611 18.2131 14.6708 18.4855 14.9164 18.6893C15.162 18.8931 14.9984 19.9532 15.3647 19.6569C15.731 19.3606 17.2103 17.5205 17.2103 17.5205C17.2103 17.5205 18.3554 16.3655 18.5309 17.5796C18.7063 18.7938 19.453 20.1394 19.6508 20.101C19.8489 20.0626 22.1525 15.3806 22.4824 15.0785C22.8123 14.7764 23.923 14.8161 23.8703 15.591C23.8175 16.366 23.7044 21.1825 23.7044 21.1825C23.7044 21.1825 23.5741 22.5397 23.7864 21.8144C23.8744 21.5136 23.9689 21.2423 24.0871 20.9258C24.6556 19.1056 25.6241 15.9962 26.1067 14.394C26.2176 14.0107 26.3132 13.6816 26.3874 13.4286L26.3875 13.4279C26.4163 13.3107 26.445 13.2179 26.4738 13.135C26.5141 12.9992 26.5414 12.9094 26.5498 12.8856C26.5714 12.8258 26.6318 12.78 26.7168 12.7465C26.8021 12.6927 26.8936 12.69 26.9973 12.6873C27.2652 12.6633 27.6096 12.6982 27.9192 12.7864C28.0094 12.79 28.1076 12.8189 28.2004 12.8856V12.8857C28.2004 12.8857 28.2059 12.8891 28.2138 12.8942C28.2159 12.8958 28.2181 12.897 28.2204 12.8987C28.2397 12.9122 28.2711 12.9387 28.3075 12.9825C28.3086 12.9839 28.3097 12.9856 28.311 12.9869C28.326 13.0054 28.3412 13.0272 28.3566 13.052C28.5295 13.3058 28.6358 13.7736 28.5293 14.6031C28.2637 16.6732 28.0581 20.9318 28.0581 20.9318C28.0581 20.9318 28.0171 21.1355 28.4439 20.2386C28.4589 20.2074 28.4778 20.1804 28.4953 20.1517C28.5184 20.1366 28.5443 20.1147 28.5763 20.0762C28.8398 19.7619 29.5485 19.5773 30.0398 19.581C30.2469 19.6061 30.4204 19.6582 30.524 19.7237C30.718 20.0188 30.6035 21.1082 30.6035 21.1082C30.1947 21.146 29.4154 21.366 29.1392 21.4067C28.8628 21.4475 28.4432 23.2415 27.8598 23.0579C27.2764 22.8746 25.9765 22.0591 25.9765 21.947C25.9765 21.8494 26.0788 20.6576 26.1053 20.35C26.1073 20.3287 26.1088 20.309 26.1104 20.2894C26.111 20.2836 26.1116 20.2771 26.1116 20.2771L26.1114 20.2775C26.1303 20.0352 26.1135 19.9294 26.0016 20.1712C25.9053 20.3792 25.4865 21.7099 25.0197 23.1592C24.9703 23.2859 24.0879 25.9565 23.972 26.2821C23.8338 26.6599 23.7176 26.949 23.6374 27.0985C23.5152 27.264 23.3507 27.3676 23.1209 27.2981C22.5478 27.1249 21.822 26.3329 21.8153 26.1364C21.8016 25.0281 21.8691 19.069 21.6005 19.5656C21.3247 20.0748 19.1805 23.6084 19.1805 23.6084C19.1446 23.6146 19.1181 23.6134 19.0864 23.6163C18.9345 23.5997 18.6994 23.5504 18.6343 23.405C18.6308 23.3964 18.626 23.3886 18.6229 23.3797C18.6198 23.3707 18.6163 23.3606 18.6109 23.3441C18.5818 23.2468 18.5699 23.1412 18.5443 23.0547C18.4484 22.731 18.2949 22.2671 18.1338 21.7951C17.887 20.9903 17.6326 20.1671 17.5907 20.0762C17.5089 19.8984 17.3896 19.9734 17.2827 20.0761C16.8042 20.482 15.7875 22.2738 14.8695 22.3718Z" fill="#F88E00"/>
</svg>
