<?xml version="1.0" encoding="utf-8"?>
<!-- Generator: Adobe Illustrator 25.2.3, SVG Export Plug-In . SVG Version: 6.00 Build 0)  -->
<svg version="1.1" id="Layer_1" xmlns="http://www.w3.org/2000/svg" xmlns:xlink="http://www.w3.org/1999/xlink" x="0px" y="0px"
	 viewBox="0 0 40 40" style="enable-background:new 0 0 40 40;" xml:space="preserve">
<style type="text/css">
	.st0{fill:#07C806;}
	.st1{fill:none;stroke:#FFFFFF;stroke-linecap:round;stroke-linejoin:round;}
</style>
<path class="st0" d="M4,0h32c2.2,0,4,1.8,4,4v32c0,2.2-1.8,4-4,4H4c-2.2,0-4-1.8-4-4V4C0,1.8,1.8,0,4,0z"/>
<path class="st1" d="M13,17.5h14"/>
<path class="st1" d="M26,14.5H14c-0.6,0-1,0.4-1,1v11c0,0.6,0.4,1,1,1h12c0.6,0,1-0.4,1-1v-11C27,14.9,26.6,14.5,26,14.5z"/>
<path class="st1" d="M16,12.5v2"/>
<path class="st1" d="M24,12.5v2"/>
<path class="st1" d="M20,12.5v2"/>
</svg>
