<svg xmlns="http://www.w3.org/2000/svg" viewBox="0 0 23.34 23.34"><defs><style>.cls-1,.cls-2{fill:none;}.cls-1{stroke:#fff;stroke-miterlimit:10;}</style></defs><g id="Layer_2" data-name="Layer 2"><g id="Layer_1-2" data-name="Layer 1"><path class="cls-1" d="M22.41,10.66v-.05c0-.15,0-.29-.06-.44s0-.08,0-.12,0-.25-.07-.37l0-.18c0-.11,0-.21-.07-.32L22.11,9c0-.1-.05-.19-.08-.29s0-.1,0-.15L11.73,11.85,1.48,15.18l.06.18.09.25c0,.09.08.17.11.26l.11.24c0,.09.08.17.12.26l.11.23.13.24.13.23c0,.08.09.16.14.24l.13.21.16.23c0,.07.09.14.14.21s.11.14.16.22a1.56,1.56,0,0,1,.16.2l.17.21.16.19.18.2.18.18a1.7,1.7,0,0,0,.19.19l.18.18.19.17.2.17.2.17.2.16.2.15.21.15a1.64,1.64,0,0,0,.22.14l.21.15.22.13.23.13.22.12.23.13.23.1.24.12.23.09.24.1L8,21.8l.25.09.24.08.25.07.25.07.25.06.25.06.26.05.26,0,.25,0,.27,0,.25,0h.27l.25,0h.28a2.08,2.08,0,0,0,.25,0h.52l.31,0,.22,0,.33-.05.21,0,.35-.06.18,0,.39-.09.14,0,.53-.15.51-.18.05,0A10.8,10.8,0,0,0,22.41,10.66Z"/><path class="cls-1" d="M21.74,7.81l-.15-.38c-.06-.14-.12-.28-.19-.42s-.11-.24-.17-.35L21,6.25c-.07-.11-.13-.22-.19-.33l-.26-.39-.21-.3c-.09-.13-.19-.25-.29-.38l-.22-.27c-.11-.13-.23-.25-.34-.37L19.28,4c-.13-.13-.27-.25-.41-.37l-.19-.18a10.08,10.08,0,0,0-1.32-1,2.39,2.39,0,0,0-.22-.12,4.91,4.91,0,0,0-.5-.28l-.28-.13-.46-.22-.32-.12-.46-.16-.35-.1-.45-.13L14,1.12,13.49,1,13.1,1l-.46,0-.4,0-.37,0V11.41l10-3.25C21.83,8,21.78,7.92,21.74,7.81Z"/><path class="cls-1" d="M1.18,14.15l.06.23.07.28c0,.05,0,.1.05.16l5-1.62,4.94-1.61L3.47,4.67a10.87,10.87,0,0,0-2.54,8v.07c0,.14,0,.28.05.42s0,.09,0,.14l.06.35c0,.07,0,.13,0,.2S1.15,14.05,1.18,14.15Z"/><path class="cls-1" d="M7.57,1.7l-.43.18L7,2l-.46.24-.1.06-.54.32-.14.09-.36.25-.21.16-.27.21a2.11,2.11,0,0,0-.23.19l-.17.15c-.18.16-.35.32-.51.49l-.11.11-.14.15,7.75,6.86V.89h-.37l-.37,0c-.16,0-.32,0-.48.06L9.94,1l-.53.1-.26.06c-.26.06-.53.14-.81.23l-.6.22Z"/><path class="cls-1" d="M22.3,8.22A11,11,0,0,0,11.67.5a10.38,10.38,0,0,0-3.45.55l-.53.19-.07,0,0,0-.15.06-.27.11h0a1.92,1.92,0,0,0-.25.12l-.09,0A11.17,11.17,0,0,0,.75,14v0c0,.15.07.29.11.43l0,.13c0,.13.07.25.11.38s0,.11.05.16a11.25,11.25,0,0,0,10.63,7.72h0A11.18,11.18,0,0,0,22.3,8.22ZM15.52,21.75l-.51.18-.53.15-.14,0-.39.09-.18,0-.35.06-.21,0-.33.05-.22,0-.3,0h-.53a2.09,2.09,0,0,1-.25,0H11.3l-.25,0h-.27l-.25,0-.27,0-.25,0-.26,0-.26-.05-.25-.06L9,22.11,8.74,22,8.49,22l-.24-.08L8,21.8l-.24-.09-.24-.1-.23-.09-.24-.12-.23-.1-.23-.13-.22-.12-.23-.13-.22-.13-.21-.14-.22-.15-.21-.15-.2-.15L4.88,20l-.2-.17-.2-.17-.19-.17-.18-.18a1.7,1.7,0,0,1-.19-.19L3.75,19l-.19-.2c-.05-.06-.1-.13-.16-.19l-.17-.21-.15-.2L2.91,18l-.14-.21-.16-.23-.13-.21c0-.08-.1-.16-.14-.24l-.13-.23-.13-.24L2,16.37c0-.09-.09-.17-.12-.26l-.11-.24c0-.09-.07-.17-.11-.26l-.09-.25-.06-.18,10.25-3.33L22,8.52c0,.05,0,.1,0,.15s.06.19.08.29l.06.22c0,.11,0,.21.07.32l0,.18c0,.12.05.25.07.37a.5.5,0,0,0,0,.12c0,.15,0,.29.05.44v.05a10.8,10.8,0,0,1-6.84,11.07ZM1,13.3c0-.05,0-.1,0-.14s0-.28-.05-.42v-.07a10.87,10.87,0,0,1,2.54-8l7.83,6.92-5,1.61-5,1.62-.05-.17c0-.09-.05-.18-.07-.27l-.06-.23c0-.1-.05-.2-.07-.3s0-.13,0-.2ZM11.87.89h.37l.4,0,.46,0,.39.05.46.09.37.08.45.13.35.1.46.16.32.12.46.22.28.13a4.91,4.91,0,0,1,.5.28,2.39,2.39,0,0,1,.22.12,10.08,10.08,0,0,1,1.32,1l.19.18c.14.12.28.24.41.37l.22.24c.11.12.23.24.34.37l.22.27c.1.13.2.25.29.38l.21.3.26.39c.06.11.12.22.19.33l.22.41c.06.11.11.23.17.35s.13.28.19.42l.15.38c0,.11.09.23.13.35l-10,3.25Zm-2.72.29.26-.06L9.94,1l.32,0c.16,0,.32,0,.48-.06l.37,0h.37V11.24L3.73,4.38l.14-.15L4,4.12c.16-.17.33-.33.51-.49l.17-.15a2.11,2.11,0,0,1,.23-.19l.27-.21.21-.16.36-.25.14-.09.54-.32.1-.06L7,2l.17-.08.43-.18.17-.07.6-.22C8.62,1.32,8.89,1.24,9.15,1.18Z"/><rect class="cls-2" x="0.5" y="0.5" width="22.34" height="22.34"/></g></g></svg>