<?xml version="1.0" encoding="utf-8"?>
<!-- Generator: Adobe Illustrator 25.2.3, SVG Export Plug-In . SVG Version: 6.00 Build 0)  -->
<svg version="1.1" id="Layer_1" xmlns="http://www.w3.org/2000/svg" xmlns:xlink="http://www.w3.org/1999/xlink" x="0px" y="0px"
	 viewBox="0 0 40 40" style="enable-background:new 0 0 40 40;" xml:space="preserve">
<style type="text/css">
	.st0{fill:#3B5798;}
	.st1{fill:#FFFFFF;}
</style>
<path class="st0" d="M4,0h32c2.2,0,4,1.8,4,4v32c0,2.2-1.8,4-4,4H4c-2.2,0-4-1.8-4-4V4C0,1.8,1.8,0,4,0z"/>
<path class="st1" d="M18,28l0-7h-3v-3h3v-2c0-2.7,1.7-4,4.1-4c1.2,0,2.1,0.1,2.4,0.1v2.8l-1.7,0c-1.3,0-1.6,0.6-1.6,1.5V18H25l-1,3
	h-2.7v7H18z"/>
</svg>
