<svg width="40" height="40" viewBox="0 0 40 40" fill="none" xmlns="http://www.w3.org/2000/svg">
<rect width="40" height="40" rx="4" fill="url(#paint0_linear)"/>
<path fill-rule="evenodd" clip-rule="evenodd" d="M15.8767 10.06C16.9433 10.0117 17.2842 10 20 10C22.7158 10 23.0567 10.0117 24.1233 10.06C25.7483 10.1342 27.1758 10.5325 28.3217 11.6783C29.4675 12.8242 29.8658 14.2517 29.94 15.8767C29.9883 16.9433 30 17.2842 30 20C30 22.7158 29.9883 23.0567 29.94 24.1233C29.8658 25.7483 29.4675 27.1758 28.3217 28.3217C27.1758 29.4675 25.7483 29.8658 24.1233 29.94C23.0567 29.9883 22.7158 30 20 30C17.2842 30 16.9433 29.9883 15.8767 29.94C14.2517 29.8658 12.8242 29.4675 11.6783 28.3217C10.5325 27.1758 10.1342 25.7483 10.06 24.1233C10.0117 23.0567 10 22.7158 10 20C10 17.2842 10.0117 16.9433 10.06 15.8767C10.1342 14.2517 10.5325 12.8242 11.6783 11.6783C12.8242 10.5325 14.2517 10.1342 15.8767 10.06ZM24.0408 11.86C22.9867 11.8117 22.67 11.8017 20 11.8017C17.33 11.8017 17.0133 11.8117 15.9592 11.86C14.8208 11.9117 13.765 12.14 12.9525 12.9525C12.14 13.765 11.9117 14.8208 11.86 15.9592C11.8117 17.0133 11.8017 17.33 11.8017 20C11.8017 22.67 11.8117 22.9867 11.86 24.0408C11.9117 25.1792 12.14 26.235 12.9525 27.0475C13.765 27.86 14.8208 28.0883 15.9592 28.14C17.0133 28.1883 17.33 28.1983 20 28.1983C22.67 28.1983 22.9867 28.1883 24.0408 28.14C25.1792 28.0883 26.235 27.86 27.0475 27.0475C27.86 26.235 28.0883 25.1792 28.14 24.0408C28.1883 22.9867 28.1983 22.67 28.1983 20C28.1983 17.33 28.1883 17.0133 28.14 15.9592C28.0883 14.8208 27.86 13.765 27.0475 12.9525C26.235 12.14 25.1792 11.9117 24.0408 11.86Z" fill="white"/>
<path fill-rule="evenodd" clip-rule="evenodd" d="M14.865 20C14.865 17.1642 17.1642 14.865 20 14.865C22.8358 14.865 25.135 17.1642 25.135 20C25.135 22.8358 22.8358 25.135 20 25.135C17.1642 25.135 14.865 22.8358 14.865 20ZM16.6667 20C16.6667 21.8408 18.1592 23.3333 20 23.3333C21.8408 23.3333 23.3333 21.8408 23.3333 20C23.3333 18.1592 21.8408 16.6667 20 16.6667C18.1592 16.6667 16.6667 18.1592 16.6667 20Z" fill="white"/>
<circle cx="25.3384" cy="14.6617" r="1.2" fill="white"/>
<defs>
<linearGradient id="paint0_linear" x1="40" y1="0" x2="4.76837e-06" y2="40" gradientUnits="userSpaceOnUse">
<stop stop-color="#194BDB"/>
<stop offset="0.399616" stop-color="#AE42A7"/>
<stop offset="0.670465" stop-color="#FB682C"/>
<stop offset="1" stop-color="#FBCA68"/>
</linearGradient>
</defs>
</svg>
