<svg xmlns="http://www.w3.org/2000/svg" viewBox="0 0 23.34 23.34"><defs><style>.cls-1,.cls-2{fill:none;}.cls-1{stroke:#fff;stroke-miterlimit:10;}</style></defs><g id="Layer_2" data-name="Layer 2"><g id="Layer_1-2" data-name="Layer 1"><path class="cls-1" d="M4.35,11.4H.68a.19.19,0,0,1-.18-.19V5.72a.18.18,0,0,1,.18-.18H4.35a.18.18,0,0,1,.18.18v5.49A.19.19,0,0,1,4.35,11.4ZM.87,11H4.16V5.9H.87Z"/><path class="cls-1" d="M9.84,12.77H4.35a.18.18,0,0,1-.19-.18V4.35a.18.18,0,0,1,.19-.19H9.84a.18.18,0,0,1,.18.19v8.24A.18.18,0,0,1,9.84,12.77ZM4.53,12.4H9.66V4.53H4.53Z"/><path class="cls-1" d="M20.37,16.43h-.06L9.78,12.76a.19.19,0,0,1-.12-.17V4.35a.2.2,0,0,1,.12-.18L20.31.51a.18.18,0,0,1,.16,0,.19.19,0,0,1,.08.15V16.25a.19.19,0,0,1-.08.15A.19.19,0,0,1,20.37,16.43ZM10,12.46,20.18,16V.94L10,4.47Z"/><path class="cls-1" d="M12.13,22.84H8.47a.18.18,0,0,1-.16-.1L8,22.15a24.33,24.33,0,0,1-2.9-9.55.18.18,0,0,1,0-.14.2.2,0,0,1,.14-.06H8.92a.19.19,0,0,1,.19.17A24.12,24.12,0,0,0,12,22l.33.6a.17.17,0,0,1,0,.18A.16.16,0,0,1,12.13,22.84Zm-3.55-.37h3.24l-.18-.32a24.46,24.46,0,0,1-2.88-9.38H5.46A24.17,24.17,0,0,0,8.3,22Z"/><path class="cls-1" d="M20.83,10.94h-.46a.19.19,0,0,1-.19-.19V7.09a.19.19,0,0,1,.19-.18h.46a2,2,0,0,1,0,4Zm-.28-.37h.28a1.65,1.65,0,0,0,0-3.29h-.28Z"/><rect class="cls-2" x="0.38" y="0.5" width="22.34" height="22.34"/></g></g></svg>