<?xml version="1.0" encoding="utf-8"?>
<!-- Generator: Adobe Illustrator 25.2.3, SVG Export Plug-In . SVG Version: 6.00 Build 0)  -->
<svg version="1.1" id="Layer_1" xmlns="http://www.w3.org/2000/svg" xmlns:xlink="http://www.w3.org/1999/xlink" x="0px" y="0px"
	 viewBox="0 0 40 40" style="enable-background:new 0 0 40 40;" xml:space="preserve">
<style type="text/css">
	.st0{fill:#07C806;}
	.st1{fill:none;stroke:#FFFFFF;stroke-linecap:round;stroke-linejoin:round;}
</style>
<path class="st0" d="M4,0h32c2.2,0,4,1.8,4,4v32c0,2.2-1.8,4-4,4H4c-2.2,0-4-1.8-4-4V4C0,1.8,1.8,0,4,0z"/>
<path class="st1" d="M21.5,12.5V25"/>
<circle class="st1" cx="19" cy="25" r="2.5"/>
<path class="st1" d="M12.5,13.5h6"/>
<path class="st1" d="M12.5,16.5h6"/>
<path class="st1" d="M12.5,19.5h6"/>
<path class="st1" d="M21.5,13.4c0.7,0.7,1.6,1.1,2.5,1.1c1.9,0,3.5,1.6,3.5,3.5c0,0.2,0,0.3-0.1,0.5c-0.7-0.6-1.5-1-2.4-1
	c-1.9,0-3.5-1.6-3.5-3.5V13.4z"/>
</svg>
