<svg xmlns="http://www.w3.org/2000/svg" viewBox="0 0 22.34 22.34"><defs><style>.cls-1{fill:#fff;}.cls-2{fill:none;}</style></defs><g id="Layer_2" data-name="Layer 2"><g id="Layer_1-2" data-name="Layer 1"><path class="cls-1" d="M11.1,0A11.17,11.17,0,1,0,22.34,11.13,11.14,11.14,0,0,0,11.1,0Zm0,1.24a9.93,9.93,0,0,1,8,15.9,17.77,17.77,0,0,0-3.46-1.63c-.79-.11-2-.21-2.24-.56A10.66,10.66,0,0,1,13,13.21a1.6,1.6,0,0,0,.52-1c.06-.64.16-1.19.16-1.19a.58.58,0,0,0,.45-.45,6,6,0,0,1,.32-1.19c.08-.18.23-.87-.27-.71a7.83,7.83,0,0,0,.21-2.5,2.09,2.09,0,0,0-.47-1.06,2.58,2.58,0,0,0-.53-.58,7.21,7.21,0,0,0-2.11-.66,4.21,4.21,0,0,0-1.84.32,1.22,1.22,0,0,0-.87.66A1.12,1.12,0,0,0,8,5c-.26.21-.34.79-.45,1.16a8.77,8.77,0,0,0,.24,2.51c-.5-.16-.34.55-.26.71a7,7,0,0,1,.31,1.19.53.53,0,0,0,.45.42,11.3,11.3,0,0,1,.16,1.19,1.57,1.57,0,0,0,.55,1A7.94,7.94,0,0,1,8.6,15c-.21.35-1.45.48-2.24.58a14.54,14.54,0,0,0-3.19,1.53,9.75,9.75,0,0,1-2-5.85A10,10,0,0,1,11.1,1.24Z"/><rect class="cls-2" width="22.34" height="22.34"/></g></g></svg>