<svg width="20" height="20" viewBox="0 0 20 20" fill="none" xmlns="http://www.w3.org/2000/svg">
<path fill-rule="evenodd" clip-rule="evenodd" d="M0 10C0 4.5 4.5 0 10 0C15.5833 0 20 4.5 20 10C20 15.5 15.5 20 10 20C4.5 20 0 15.5 0 10ZM13.75 14.5833C14 14.8333 14.4167 14.75 14.5833 14.4167C14.75 14.1667 14.6667 13.75 14.25 13.5833C11.6667 12 8.41667 11.6667 4.58333 12.5C4.33333 12.5833 4.08333 12.9167 4.16667 13.25C4.25 13.5 4.58333 13.75 4.91667 13.6667C8.41667 12.8333 11.4167 13.1667 13.75 14.5833ZM15.8333 11.6667C15.5833 12 15.1667 12.1667 14.75 11.9167C12.0833 10.25 7.91667 9.75 4.83333 10.75C4.41667 10.8333 4 10.6667 3.91667 10.25C3.83333 9.83333 4 9.41667 4.41667 9.33333C8.08333 8.25 12.5833 8.75 15.6667 10.6667C15.9167 10.8333 16.0833 11.3333 15.8333 11.6667ZM4.33333 7.75C7.33333 6.83333 12.6667 7 15.9167 8.91667C16.3333 9.16667 16.9167 9 17.1667 8.66667C17.4167 8.16667 17.25 7.58333 16.8333 7.33333C13.1667 5.16667 7.33333 4.91667 3.75 6C3.33333 6.16667 3 6.66667 3.16667 7.16667C3.33333 7.58333 3.83333 7.91667 4.33333 7.75Z" fill="white"/>
</svg>
