<svg width="40" height="40" viewBox="0 0 40 40" fill="none" xmlns="http://www.w3.org/2000/svg">
<rect width="40" height="40" rx="4" fill="#1DB954"/>
<path fill-rule="evenodd" clip-rule="evenodd" d="M12 20C12 15.6 15.6 12 20 12C24.4667 12 28 15.6 28 20C28 24.4 24.4 28 20 28C15.6 28 12 24.4 12 20ZM23 23.6667C23.2 23.8667 23.5333 23.8 23.6667 23.5333C23.8 23.3333 23.7333 23 23.4 22.8667C21.3333 21.6 18.7333 21.3333 15.6667 22C15.4667 22.0667 15.2667 22.3333 15.3333 22.6C15.4 22.8 15.6667 23 15.9333 22.9333C18.7333 22.2667 21.1333 22.5333 23 23.6667ZM24.6667 21.3333C24.4667 21.6 24.1333 21.7333 23.8 21.5333C21.6667 20.2 18.3333 19.8 15.8667 20.6C15.5333 20.6667 15.2 20.5333 15.1333 20.2C15.0667 19.8667 15.2 19.5333 15.5333 19.4667C18.4667 18.6 22.0667 19 24.5333 20.5333C24.7333 20.6667 24.8667 21.0667 24.6667 21.3333ZM15.4667 18.2C17.8667 17.4667 22.1333 17.6 24.7333 19.1333C25.0667 19.3333 25.5333 19.2 25.7333 18.9333C25.9333 18.5333 25.8 18.0667 25.4667 17.8667C22.5333 16.1333 17.8667 15.9333 15 16.8C14.6667 16.9333 14.4 17.3333 14.5333 17.7333C14.6667 18.0667 15.0667 18.3333 15.4667 18.2Z" fill="white"/>
</svg>
