<svg xmlns="http://www.w3.org/2000/svg" viewBox="0 0 155 21.14"><defs><style>.cls-1{fill:#fff;}</style></defs><g id="Layer_2" data-name="Layer 2"><g id="Layer_1-2" data-name="Layer 1"><g id="Page-1"><g id="Desktop-HD"><g id="SYMPHONY"><path id="path-1" class="cls-1" d="M17.22,14.12V15.5a5.65,5.65,0,0,1-5.63,5.64H0L1.25,17H11.49a1.57,1.57,0,0,0,1.57-1.56V14.22a1.55,1.55,0,0,0-1.57-1.57H5.64A5.66,5.66,0,0,1,0,7V5.64A5.66,5.66,0,0,1,5.64,0h10L14.4,4.16H5.7A1.57,1.57,0,0,0,4.13,5.73V6.92A1.57,1.57,0,0,0,5.7,8.49h5.89A5.64,5.64,0,0,1,17.22,14.12ZM36,0,28.56,11.21v9.93H24.39V9.93l1-1.44H22.58L16.91,0h5l4.57,6.83L31.06,0ZM52.83,0H57V21.14H52.83V8l-3.95,6.49H45.69L41.74,8V21.14H37.61V0h4.13l5.54,9.11ZM77.16,9.14v0Zm0-3.6v0Zm0,3.7a5.66,5.66,0,0,1-5.64,5.54H65.69L67,10.62h4.48A1.55,1.55,0,0,0,73,9.05V5.73a1.55,1.55,0,0,0-1.56-1.57H64.07v17H59.93V0H71.52a5.66,5.66,0,0,1,5.64,5.54ZM95.63,0V21.14H91.47V12.65H84.11v8.49H80V0h4.14V10.58l2.1-2.09h5.26V0Zm13.93,0a5.66,5.66,0,0,1,5.64,5.64V15.5a5.66,5.66,0,0,1-5.64,5.64h-5.32a5.65,5.65,0,0,1-5.63-5.64V5.64A5.65,5.65,0,0,1,104.24,0ZM111,15.44V5.73a1.55,1.55,0,0,0-1.57-1.57H104.3a1.57,1.57,0,0,0-1.56,1.57v9.71A1.59,1.59,0,0,0,104.3,17h5.17A1.57,1.57,0,0,0,111,15.44Zm23.42,5.7h-4.17L122.31,8V21.14h-4.13V0h4.13l8,13.15V0h4.17ZM155,0l-7.48,11.21v9.93h-4.17V9.93l1-1.44h-2.78L135.87,0h5l4.57,6.83L150,0Z"/><path id="path-1-2" data-name="path-1" class="cls-1" d="M17.22,14.12V15.5a5.65,5.65,0,0,1-5.63,5.64H0L1.25,17H11.49a1.57,1.57,0,0,0,1.57-1.56V14.22a1.55,1.55,0,0,0-1.57-1.57H5.64A5.66,5.66,0,0,1,0,7V5.64A5.66,5.66,0,0,1,5.64,0h10L14.4,4.16H5.7A1.57,1.57,0,0,0,4.13,5.73V6.92A1.57,1.57,0,0,0,5.7,8.49h5.89A5.64,5.64,0,0,1,17.22,14.12ZM36,0,28.56,11.21v9.93H24.39V9.93l1-1.44H22.58L16.91,0h5l4.57,6.83L31.06,0ZM52.83,0H57V21.14H52.83V8l-3.95,6.49H45.69L41.74,8V21.14H37.61V0h4.13l5.54,9.11ZM77.16,9.14v0Zm0-3.6v0Zm0,3.7a5.66,5.66,0,0,1-5.64,5.54H65.69L67,10.62h4.48A1.55,1.55,0,0,0,73,9.05V5.73a1.55,1.55,0,0,0-1.56-1.57H64.07v17H59.93V0H71.52a5.66,5.66,0,0,1,5.64,5.54ZM95.63,0V21.14H91.47V12.65H84.11v8.49H80V0h4.14V10.58l2.1-2.09h5.26V0Zm13.93,0a5.66,5.66,0,0,1,5.64,5.64V15.5a5.66,5.66,0,0,1-5.64,5.64h-5.32a5.65,5.65,0,0,1-5.63-5.64V5.64A5.65,5.65,0,0,1,104.24,0ZM111,15.44V5.73a1.55,1.55,0,0,0-1.57-1.57H104.3a1.57,1.57,0,0,0-1.56,1.57v9.71A1.59,1.59,0,0,0,104.3,17h5.17A1.57,1.57,0,0,0,111,15.44Zm23.42,5.7h-4.17L122.31,8V21.14h-4.13V0h4.13l8,13.15V0h4.17ZM155,0l-7.48,11.21v9.93h-4.17V9.93l1-1.44h-2.78L135.87,0h5l4.57,6.83L150,0Z"/></g></g></g></g></g></svg>