<svg width="40" height="40" viewBox="0 0 40 40" fill="none" xmlns="http://www.w3.org/2000/svg">
<rect width="40" height="40" rx="4" fill="black"/>
<path fill-rule="evenodd" clip-rule="evenodd" d="M13.2356 27.1361C8.99263 23.4542 11.7367 15.2569 18.2599 16.2883V17.0474C12.7509 16.7912 10.3259 23.3624 13.2356 27.1361ZM25.1339 12.9155C25.8042 13.4511 26.7285 13.8461 28.0028 13.9216V14.6654C26.5929 14.405 25.6992 13.7043 25.1339 12.9155ZM23.3649 9C23.3639 9.27456 23.3996 9.5694 23.4445 9.8386H20.8441V22.786C20.8441 23.3828 20.7828 23.9144 20.6604 24.3806C19.6014 26.7148 16.6031 26.4097 15.7746 24.808C17.0081 25.5803 19.0364 25.3753 19.8687 23.542C19.9902 23.0768 20.0514 22.5442 20.0514 21.9474V9H23.3649Z" fill="#00F7EF"/>
<path fill-rule="evenodd" clip-rule="evenodd" d="M24.1577 9.83862V9.8552C24.1586 10.155 24.2464 14.4898 28.7954 14.7602C28.7954 18.7929 28.7975 14.7602 28.7975 18.1095C28.4557 18.1297 25.8032 17.9381 24.1525 16.4658L24.1474 22.986C24.1882 25.9384 22.5447 28.8337 19.4678 29.4173C18.6057 29.5805 17.8295 29.5989 16.5265 29.3142C9.02002 27.0688 11.5144 15.9354 19.0516 17.1269C19.0516 20.7212 19.0536 17.1259 19.0536 20.7212C15.94 20.2631 14.8984 22.8533 15.7257 24.7081C16.4788 26.3965 19.579 26.7627 20.6604 24.3806C20.7828 23.9144 20.8441 23.3828 20.8441 22.786V9.83862H24.1577Z" fill="white"/>
<path fill-rule="evenodd" clip-rule="evenodd" d="M18.26 17.0474C18.5169 17.0587 18.7813 17.084 19.0516 17.1269C19.0516 20.7212 19.0537 17.1259 19.0537 20.7212C15.94 20.2631 14.8984 22.8533 15.7258 24.7081C15.741 24.7418 15.7574 24.7754 15.7746 24.808C15.4043 24.5765 15.1065 24.2582 14.9333 23.8695C14.1069 22.0148 15.1474 19.4245 18.261 19.8826C18.261 16.5883 18.26 19.3296 18.26 17.0474ZM28.0028 14.6654C28.2507 14.711 28.5149 14.7437 28.7955 14.7602C28.7955 18.7928 28.7975 14.7602 28.7975 18.1094C28.4558 18.1297 25.8033 17.938 24.1526 16.4658L24.1475 22.986C24.1883 25.9384 22.5448 28.8337 19.4678 29.4172C18.6058 29.5805 17.8295 29.5989 16.5265 29.3142C15.0596 28.8755 13.9763 28.0961 13.2356 27.1361C13.8956 27.7094 14.7239 28.1737 15.735 28.4767C17.0366 28.7603 17.8131 28.7419 18.6751 28.5786C21.7521 27.9951 23.3956 25.0998 23.3558 22.1484L23.3599 15.6272C25.0106 17.0994 27.6631 17.2921 28.0059 17.2707C28.0059 14.1603 28.0028 17.4157 28.0028 14.6654ZM24.1577 9.83862V9.8552C24.1577 10.0315 24.1893 11.5967 25.134 12.9156C23.9955 12.0046 23.5894 10.6886 23.4446 9.83865H24.1577V9.83862Z" fill="#FF004F"/>
</svg>
