<svg width="40" height="40" viewBox="0 0 40 40" fill="none" xmlns="http://www.w3.org/2000/svg">
<rect width="40" height="40" rx="4" fill="#1DA1F2"/>
<path d="M16.5202 27.6221C23.5983 27.6221 27.4697 21.758 27.4697 16.6726C27.4697 16.5061 27.4697 16.3403 27.4584 16.1752C28.2115 15.6304 28.8617 14.9559 29.3783 14.1832C28.676 14.4944 27.9309 14.6985 27.168 14.7887C27.9714 14.3078 28.5726 13.5513 28.8599 12.6602C28.1045 13.1084 27.2781 13.4243 26.4163 13.5943C25.8361 12.9773 25.0687 12.5688 24.2329 12.4319C23.3971 12.295 22.5395 12.4374 21.7928 12.837C21.0461 13.2366 20.4519 13.8712 20.1021 14.6426C19.7524 15.4139 19.6667 16.279 19.8582 17.104C18.3282 17.0273 16.8314 16.6297 15.4651 15.937C14.0987 15.2444 12.8933 14.2721 11.9271 13.0833C11.4349 13.9305 11.2842 14.9334 11.5056 15.8878C11.7269 16.8422 12.3037 17.6764 13.1185 18.2204C12.5061 18.2023 11.907 18.0371 11.3719 17.7388C11.3719 17.7545 11.3719 17.771 11.3719 17.7875C11.3721 18.676 11.6797 19.5371 12.2424 20.2246C12.8051 20.9122 13.5883 21.384 14.4592 21.5599C13.8927 21.7144 13.2982 21.737 12.7216 21.6259C12.9675 22.3906 13.4462 23.0592 14.0909 23.5384C14.7355 24.0176 15.5138 24.2833 16.3169 24.2984C14.9542 25.3693 13.2708 25.9507 11.5377 25.949C11.2315 25.9484 10.9256 25.9298 10.6216 25.8934C12.3814 27.0228 14.4291 27.6219 16.5202 27.6191" fill="white"/>
</svg>
