<svg xmlns="http://www.w3.org/2000/svg" viewBox="0 0 22.92 22.34"><defs><style>.cls-1,.cls-2{fill:none;}.cls-1{stroke:#fff;stroke-miterlimit:10;}</style></defs><g id="Layer_2" data-name="Layer 2"><g id="Layer_1-2" data-name="Layer 1"><path class="cls-1" d="M22.27,19.64H.66a.16.16,0,0,1-.16-.16V2.86A.16.16,0,0,1,.66,2.7H22.27a.16.16,0,0,1,.15.16V19.48A.14.14,0,0,1,22.27,19.64ZM.82,19.32H22.11V3H.82Z"/><path class="cls-1" d="M22.27,6.25H.66A.16.16,0,0,1,.5,6.1a.16.16,0,0,1,.16-.16H22.27a.16.16,0,0,1,.15.16A.15.15,0,0,1,22.27,6.25Z"/><path class="cls-1" d="M11.24,9.62H2.59a.16.16,0,0,1-.16-.16.17.17,0,0,1,.16-.16h8.65a.17.17,0,0,1,.16.16A.16.16,0,0,1,11.24,9.62Z"/><path class="cls-1" d="M8,13H2.59a.17.17,0,0,1-.16-.16.16.16,0,0,1,.16-.16H8a.16.16,0,0,1,.16.16A.16.16,0,0,1,8,13Z"/><path class="cls-1" d="M10.2,16.27H2.59a.17.17,0,0,1-.16-.16A.16.16,0,0,1,2.59,16H10.2a.16.16,0,1,1,0,.32Z"/><path class="cls-1" d="M16.9,17H15.57a.16.16,0,0,1-.15-.16v-.82a3.51,3.51,0,0,1-.92-.38l-.58.58a.14.14,0,0,1-.22,0l-.94-.94a.14.14,0,0,1,0-.11.15.15,0,0,1,0-.11l.58-.58A3.72,3.72,0,0,1,13,13.6h-.82a.15.15,0,0,1-.15-.15V12.13a.16.16,0,0,1,.15-.16H13a3.72,3.72,0,0,1,.38-.92l-.58-.58a.17.17,0,0,1,0-.22l.94-.94a.16.16,0,0,1,.22,0l.58.58a3.51,3.51,0,0,1,.92-.38V8.69a.16.16,0,0,1,.15-.16H16.9a.17.17,0,0,1,.16.16v.82a3.44,3.44,0,0,1,.91.38l.58-.58a.16.16,0,0,1,.22,0l.94.94a.14.14,0,0,1,.05.11.16.16,0,0,1-.05.11l-.58.58a3.37,3.37,0,0,1,.38.92h.82a.16.16,0,0,1,.16.16v1.32a.16.16,0,0,1-.16.15h-.82a3.25,3.25,0,0,1-.38.92l.58.58a.16.16,0,0,1,.05.11.14.14,0,0,1-.05.11l-.94.94a.14.14,0,0,1-.22,0L18,15.68a3.51,3.51,0,0,1-.92.38v.82A.16.16,0,0,1,16.9,17Zm-1.16-.32h1v-.79a.15.15,0,0,1,.12-.15,3.06,3.06,0,0,0,1-.43.16.16,0,0,1,.2,0l.56.56.71-.71-.56-.56a.16.16,0,0,1,0-.2,2.9,2.9,0,0,0,.43-1,.17.17,0,0,1,.16-.13h.78v-1h-.78a.17.17,0,0,1-.16-.13,2.9,2.9,0,0,0-.43-1,.16.16,0,0,1,0-.2l.56-.56-.71-.71-.56.55a.15.15,0,0,1-.2,0,3.14,3.14,0,0,0-1-.43.16.16,0,0,1-.13-.15V8.85h-1v.79a.15.15,0,0,1-.12.15,3.11,3.11,0,0,0-1,.43.14.14,0,0,1-.19,0l-.56-.55-.71.71.55.56a.15.15,0,0,1,0,.2,3.08,3.08,0,0,0-.44,1,.16.16,0,0,1-.15.13H12.3v1h.79a.15.15,0,0,1,.15.13,3.08,3.08,0,0,0,.44,1,.15.15,0,0,1,0,.2l-.55.56.71.71.56-.56a.15.15,0,0,1,.19,0,3.11,3.11,0,0,0,1,.43.15.15,0,0,1,.12.15v.79Z"/><path class="cls-1" d="M16.24,14.72a1.94,1.94,0,1,1,1.94-1.94A1.94,1.94,0,0,1,16.24,14.72Zm0-3.55a1.62,1.62,0,1,0,1.62,1.62A1.61,1.61,0,0,0,16.24,11.17Z"/><path class="cls-1" d="M3,5.23a.75.75,0,1,1,0-1.5.75.75,0,1,1,0,1.5ZM3,4a.44.44,0,1,0,.44.44A.44.44,0,0,0,3,4Z"/><path class="cls-1" d="M6.52,5.23a.75.75,0,1,1,.75-.75A.75.75,0,0,1,6.52,5.23ZM6.52,4a.44.44,0,0,0-.44.44.44.44,0,0,0,.44.44A.43.43,0,0,0,7,4.48.44.44,0,0,0,6.52,4Z"/><rect class="cls-2" x="0.23" width="22.34" height="22.34"/></g></g></svg>