<svg width="40" height="40" viewBox="0 0 40 40" fill="none" xmlns="http://www.w3.org/2000/svg">
<rect width="40" height="40" rx="4" fill="#FF0000"/>
<path fill-rule="evenodd" clip-rule="evenodd" d="M28.5888 14.2741C29.225 14.8308 29.3841 16.1827 29.3841 16.1827C29.3841 16.1827 29.5431 17.6937 29.5431 19.2047V20.6362C29.5431 22.2267 29.3841 23.7376 29.3841 23.7376C29.3841 23.7376 29.1455 25.0896 28.5888 25.6463C27.9867 26.2483 27.3283 26.3439 26.8977 26.4065C26.8165 26.4183 26.7433 26.4289 26.6802 26.4415C23.9763 26.6801 20.0001 26.6801 20.0001 26.6801C20.0001 26.6801 14.99 26.6801 13.479 26.521C13.4027 26.5058 13.306 26.4964 13.1943 26.4855C12.724 26.4398 11.9898 26.3685 11.4113 25.7258C10.7751 25.1691 10.6161 23.8172 10.6161 23.8172C10.6161 23.8172 10.457 22.2267 10.457 20.7157V19.2842C10.457 17.6937 10.6161 16.1827 10.6161 16.1827C10.6161 16.1827 10.8547 14.8308 11.4113 14.2741C12.0134 13.672 12.6718 13.5764 13.1024 13.5139C13.1837 13.5021 13.2568 13.4915 13.3199 13.4789C16.0238 13.3198 20.0001 13.3198 20.0001 13.3198C20.0001 13.3198 23.9763 13.3198 26.6802 13.4789C27.0778 13.4789 27.8731 13.4789 28.5888 14.2741ZM18.012 17.1371V22.4653L23.1811 19.8409L18.012 17.1371Z" fill="white"/>
</svg>
